<?xml version="1.0" encoding="utf-8"?>
<!-- Generator: Adobe Illustrator 19.0.0, SVG Export Plug-In . SVG Version: 6.00 Build 0)  -->
<svg version="1.1" id="Слой_1" xmlns="http://www.w3.org/2000/svg" xmlns:xlink="http://www.w3.org/1999/xlink" x="0px" y="0px"
	 viewBox="-230 107.3 381 381" style="enable-background:new -230 107.3 381 381;" xml:space="preserve">
<style type="text/css">
	.st0{fill:#FF5B5B;}
	.st1{fill:#FFFFFF;}
</style>
<g>
	<circle id="椭圆_23" class="st0" cx="-39.5" cy="297.8" r="190.1"/>
	<circle class="st1" cx="31.7" cy="251.3" r="52.4"/>
	<g>
		<path class="st1" d="M-39,278.2c0,0,0.1-0.1,0.1-0.1c6.7-4.7,8.9-13.8,4.7-21l0,0c-3.8-6.5-11.5-9.3-18.4-7.3l0,0
			c-0.1,0-0.2,0.1-0.4,0.1c-0.1,0-0.2,0.1-0.2,0.1c-1,0.3-1.9,0.7-2.8,1.2c-0.5,0.3-0.9,0.6-1.4,0.9c-1.6,1.1-2.8,2.7-4.5,4.3
			c-1.7,1.6-3.4,3.2-5.4,4.4c-13.7,8.6-31.5,4.9-41.9-6.8c0,0,0,0,0,0c-0.4-0.5-0.8-1-1.2-1.4c-1.3-1.4-2.7-2.8-4.1-4.1
			c-12.8-11-31.2-12.7-45.8-4.2c-19.1,11-25.6,35.4-14.6,54.5c10.3,17.9,32.4,24.7,50.9,16.5c1.2-0.6,2.4-1.2,3.6-1.9
			c7.1-4.1,12.8-10.4,16.3-17.8l0,0c0.3-0.6,0.6-1.3,0.8-1.9c0,0,0,0,0,0c0.2-0.4,0.4-0.8,0.6-1.2c8.5-16.5,28.7-22.9,45.2-14.4
			c0,0,0,0,0,0c0.9,0.7,1.9,1.3,3,1.7c0.2,0.1,0.3,0.1,0.5,0.2c0.1,0,0.1,0,0.2,0.1c0.1,0,0.2,0.1,0.3,0.1c0.1,0,0.2,0.1,0.2,0.1
			c0.1,0,0.1,0.1,0.2,0.1c0.1,0,0.2,0.1,0.3,0.1c0,0,0,0,0.1,0c0.4,0.1,0.9,0.2,1.3,0.3c0,0,0,0,0,0c2.3,0.5,4.6,0.5,6.9-0.1
			c0,0,0,0,0,0c0.1,0,0.3-0.1,0.4-0.1c0,0,0.1,0,0.1,0c0.1,0,0.3-0.1,0.4-0.1c0,0,0,0,0.1,0c0.4-0.1,0.8-0.2,1.1-0.4
			c0.1,0,0.1-0.1,0.2-0.1c0.1,0,0.2-0.1,0.3-0.1c0.1,0,0.2-0.1,0.2-0.1c0.1,0,0.2-0.1,0.2-0.1c0.1,0,0.2-0.1,0.3-0.2
			c0,0,0.1,0,0.1-0.1c0.2-0.1,0.3-0.2,0.5-0.3c0,0,0,0,0,0c0.1-0.1,0.3-0.1,0.4-0.2c0,0,0.1,0,0.1,0c0.2-0.1,0.3-0.2,0.5-0.3
			C-39.3,278.4-39.2,278.3-39,278.2z"/>
		<polygon class="st1" points="-52.6,249.8 -52.6,249.8 -52.6,249.8 		"/>
	</g>
	<path class="st1" d="M-6.2,305.5L-6.2,305.5c-4.1-7-12.7-9.8-20-6.7c0,0-0.1,0-0.1,0c-0.1,0.1-0.3,0.1-0.4,0.2
		c-0.1,0.1-0.2,0.1-0.3,0.2c-0.1,0-0.2,0.1-0.3,0.1c-0.2,0.1-0.4,0.2-0.6,0.3c0,0,0,0,0,0c-0.1,0-0.1,0.1-0.2,0.1
		c-0.3,0.2-0.6,0.4-1,0.6c0,0-0.1,0-0.1,0.1c-0.1,0.1-0.2,0.2-0.3,0.2c0,0,0,0-0.1,0.1c-0.1,0.1-0.2,0.2-0.3,0.3c0,0,0,0,0,0
		c-2.8,2.2-4.8,5.3-5.6,8.9c0,0,0,0,0,0.1c0,0.1,0,0.2-0.1,0.3c0,0.1,0,0.2,0,0.2c0,0.1,0,0.2,0,0.2c0,0.1,0,0.2-0.1,0.4
		c0,0.1,0,0.1,0,0.2c0,0.2,0,0.4-0.1,0.6c-0.1,1.1-0.1,2.3,0,3.4c0,0,0,0,0,0c-0.5,11.4-6.8,21.7-16.7,27.4c-6,3.5-12.9,5-19.7,4.4
		c-0.7-0.1-1.4-0.2-2.1-0.2l0,0l0,0c-8.2-0.8-16.5,1.1-23.6,5.2c0,0,0,0,0,0c0,0,0,0,0,0c-1.2,0.7-2.3,1.4-3.4,2.2
		c-16.4,11.8-21.5,34.4-11.2,52.3c11,19.1,35.4,25.6,54.5,14.6c14.6-8.4,22.3-25.2,19.3-41.8l0,0c-0.4-1.9-0.9-3.8-1.5-5.6
		c-0.2-0.6-0.4-1.2-0.7-1.8c-5-14.8,0.7-32.1,15-39.7c2.1-1.1,4.3-1.9,6.5-2.5s4.2-0.8,6-1.7c0.5-0.2,1-0.5,1.4-0.7
		c0.6-0.4,1.1-0.8,1.6-1.2c0.4-0.3,0.7-0.6,1.1-0.9c0.1-0.1,0.1-0.1,0.2-0.2l0,0l0,0C-3.9,320.1-2.5,312.1-6.2,305.5z"/>
</g>
</svg>
